<svg width="292" height="32" viewBox="0 0 292 32" fill="none" xmlns="http://www.w3.org/2000/svg">
<path d="M11.3538 3.53846C10.3385 3.53846 9.58974 3.68205 9.10769 3.96923C8.62564 4.24615 8.42051 4.75385 8.49231 5.49231L8.96923 10.0308C9 10.3077 9.01538 10.5641 9.01538 10.8C9.01538 12.1538 8.59487 13.1744 7.75385 13.8615C6.92308 14.5385 5.73333 14.9949 4.18462 15.2308C5.79487 15.4667 7 15.9128 7.8 16.5692C8.61026 17.2256 9.01538 18.2359 9.01538 19.6C9.01538 19.8564 9 20.1333 8.96923 20.4308L8.49231 24.9692C8.48205 25.0308 8.47692 25.1179 8.47692 25.2308C8.47692 25.8667 8.71795 26.3077 9.2 26.5538C9.68205 26.8 10.4 26.9231 11.3538 26.9231V30.3077C9.6 30.3077 8.17949 30.1538 7.09231 29.8462C6.01538 29.5385 5.22051 29.041 4.70769 28.3538C4.19487 27.6667 3.93846 26.7538 3.93846 25.6154C3.93846 25.4103 3.95897 25.0821 4 24.6308L4.46154 20.2308C4.47179 20.1385 4.47692 20.0051 4.47692 19.8308C4.47692 18.8769 4.10256 18.2 3.35385 17.8C2.61538 17.4 1.57949 17.2 0.246154 17.2V13.2615C1.56923 13.2615 2.60513 13.0615 3.35385 12.6615C4.10256 12.2615 4.47692 11.5846 4.47692 10.6308C4.47692 10.4564 4.47179 10.3231 4.46154 10.2308L4 5.86154C3.95897 5.53333 3.93846 5.18462 3.93846 4.81539C3.93846 3.67692 4.19487 2.76923 4.70769 2.09231C5.23077 1.41539 6.03077 0.923078 7.10769 0.615386C8.18461 0.307694 9.6 0.153848 11.3538 0.153848V3.53846ZM19.5647 0.153848C21.3186 0.153848 22.734 0.307694 23.8109 0.615386C24.8981 0.923078 25.6981 1.42051 26.2109 2.10769C26.7237 2.79487 26.9801 3.70769 26.9801 4.84615C26.9801 5.05128 26.9596 5.37949 26.9186 5.83077L26.457 10.2308C26.4468 10.3231 26.4416 10.4564 26.4416 10.6308C26.4416 11.5846 26.8109 12.2615 27.5493 12.6615C28.2981 13.0615 29.3391 13.2615 30.6724 13.2615V17.2C29.3493 17.2 28.3134 17.4 27.5647 17.8C26.816 18.2 26.4416 18.8769 26.4416 19.8308C26.4416 20.0051 26.4468 20.1385 26.457 20.2308L26.9186 24.6C26.9596 24.9282 26.9801 25.2769 26.9801 25.6462C26.9801 26.7846 26.7186 27.6923 26.1955 28.3692C25.6827 29.0462 24.8878 29.5385 23.8109 29.8462C22.734 30.1538 21.3186 30.3077 19.5647 30.3077V26.9231C20.5801 26.9231 21.3288 26.7795 21.8109 26.4923C22.2929 26.2154 22.4981 25.7077 22.4263 24.9692L21.9493 20.4308C21.9186 20.1538 21.9032 19.8974 21.9032 19.6615C21.9032 18.2974 22.3186 17.2769 23.1493 16.6C23.9904 15.9231 25.1904 15.4667 26.7493 15.2308C25.1288 14.9949 23.9134 14.5487 23.1032 13.8923C22.3032 13.2256 21.9032 12.2154 21.9032 10.8615C21.9032 10.5949 21.9186 10.3179 21.9493 10.0308L22.4263 5.49231C22.4365 5.43077 22.4416 5.34359 22.4416 5.23077C22.4416 4.59487 22.2006 4.15385 21.7186 3.90769C21.2365 3.66154 20.5186 3.53846 19.5647 3.53846V0.153848Z" fill="#57A1E5"/>
<path d="M45.3711 18.9846C45.4634 20.5744 45.9096 21.7641 46.7096 22.5538C47.5198 23.3436 48.5506 23.7385 49.8019 23.7385C50.5711 23.7385 51.2942 23.6205 51.9711 23.3846C52.648 23.1487 53.3455 22.7949 54.0634 22.3231L55.5557 24.3846C54.7865 25.0205 53.889 25.5179 52.8634 25.8769C51.8378 26.2359 50.7608 26.4154 49.6326 26.4154C47.9814 26.4154 46.566 26.0615 45.3865 25.3538C44.207 24.6359 43.3147 23.6359 42.7096 22.3538C42.1044 21.0718 41.8019 19.5846 41.8019 17.8923C41.8019 16.2615 42.0993 14.8 42.6942 13.5077C43.2993 12.2051 44.1608 11.1846 45.2788 10.4462C46.3967 9.69744 47.7096 9.32308 49.2172 9.32308C50.6429 9.32308 51.8788 9.65128 52.9249 10.3077C53.9814 10.9538 54.7916 11.8872 55.3557 13.1077C55.9301 14.3282 56.2172 15.7744 56.2172 17.4462C56.2172 18.0103 56.1916 18.5231 56.1403 18.9846H45.3711ZM49.248 11.8769C48.1301 11.8769 47.2275 12.2769 46.5403 13.0769C45.8531 13.8667 45.4583 15.0513 45.3557 16.6308H52.8788C52.848 15.1026 52.5198 13.9282 51.8942 13.1077C51.2685 12.2872 50.3865 11.8769 49.248 11.8769ZM72.4897 9.33846C72.9409 9.33846 73.3563 9.37436 73.7358 9.44616C74.1153 9.51795 74.5153 9.62051 74.9358 9.75385L74.3512 15.7385H71.8897V12.4308C70.7512 12.4718 69.7666 12.9282 68.9358 13.8C68.105 14.6615 67.4435 15.8974 66.9512 17.5077V23.5385H70.2281V26H61.1204V23.5385H63.505V12.2H61.1204V9.75385H66.1358L66.7666 13.5231C67.3922 12.1179 68.1563 11.0718 69.0589 10.3846C69.9717 9.68718 71.1153 9.33846 72.4897 9.33846ZM85.9005 1.8C86.5672 1.8 87.1108 2.00513 87.5313 2.41539C87.9518 2.82564 88.1621 3.33846 88.1621 3.95385C88.1621 4.57949 87.9518 5.10256 87.5313 5.52308C87.1108 5.93333 86.5672 6.13846 85.9005 6.13846C85.2441 6.13846 84.7057 5.93333 84.2852 5.52308C83.8646 5.10256 83.6544 4.57949 83.6544 3.95385C83.6544 3.33846 83.8646 2.82564 84.2852 2.41539C84.7057 2.00513 85.2441 1.8 85.9005 1.8ZM80.1467 9.75385H88.3005V23.4769H92.7159V26H79.9928V23.4769H84.8544V12.2769H80.1467V9.75385ZM105.711 23.5846C106.429 23.5846 107.111 23.4615 107.758 23.2154C108.414 22.9692 109.065 22.6205 109.711 22.1692L111.311 24.3846C110.583 25 109.711 25.4923 108.696 25.8615C107.691 26.2308 106.66 26.4154 105.604 26.4154C103.963 26.4154 102.547 26.0667 101.358 25.3692C100.168 24.6718 99.2601 23.6872 98.6345 22.4154C98.0089 21.1333 97.696 19.6462 97.696 17.9538C97.696 16.2923 98.014 14.8103 98.6499 13.5077C99.2858 12.2051 100.204 11.1846 101.404 10.4462C102.614 9.69744 104.034 9.32308 105.665 9.32308C107.84 9.32308 109.717 9.97436 111.296 11.2769L109.711 13.4462C108.399 12.5436 107.07 12.0923 105.727 12.0923C104.383 12.0923 103.317 12.5795 102.527 13.5538C101.747 14.5282 101.358 15.9949 101.358 17.9538C101.358 19.8923 101.747 21.3179 102.527 22.2308C103.306 23.1333 104.368 23.5846 105.711 23.5846ZM122.845 9.32308C124.404 9.32308 125.733 9.6718 126.83 10.3692C127.927 11.0667 128.758 12.0564 129.322 13.3385C129.886 14.6103 130.168 16.1128 130.168 17.8462C130.168 19.5692 129.881 21.0769 129.307 22.3692C128.733 23.6513 127.897 24.6462 126.799 25.3538C125.702 26.0615 124.379 26.4154 122.83 26.4154C121.271 26.4154 119.943 26.0718 118.845 25.3846C117.748 24.6974 116.912 23.7128 116.338 22.4308C115.774 21.1487 115.492 19.6308 115.492 17.8769C115.492 16.1846 115.779 14.6923 116.353 13.4C116.927 12.1077 117.763 11.1077 118.861 10.4C119.968 9.68205 121.297 9.32308 122.845 9.32308ZM122.845 12C121.594 12 120.656 12.4821 120.03 13.4462C119.415 14.4 119.107 15.8769 119.107 17.8769C119.107 19.8769 119.415 21.359 120.03 22.3231C120.645 23.2769 121.579 23.7538 122.83 23.7538C124.081 23.7538 125.015 23.2769 125.63 22.3231C126.245 21.359 126.553 19.8667 126.553 17.8462C126.553 15.8564 126.245 14.3846 125.63 13.4308C125.015 12.4769 124.086 12 122.845 12ZM137.856 23.0923C137.856 22.4769 138.01 21.9077 138.318 21.3846C138.625 20.8615 139.041 20.4462 139.564 20.1385C140.097 19.8205 140.672 19.6615 141.287 19.6615C141.902 19.6615 142.472 19.8205 142.995 20.1385C143.528 20.4462 143.949 20.8615 144.256 21.3846C144.564 21.9077 144.718 22.4769 144.718 23.0923C144.718 23.7077 144.564 24.2769 144.256 24.8C143.949 25.3231 143.528 25.7385 142.995 26.0462C142.472 26.3641 141.902 26.5231 141.287 26.5231C140.672 26.5231 140.097 26.3641 139.564 26.0462C139.041 25.7385 138.625 25.3231 138.318 24.8C138.01 24.2769 137.856 23.7077 137.856 23.0923ZM166.421 21.2923C166.421 21.8974 166.503 22.3436 166.667 22.6308C166.831 22.9077 167.108 23.1179 167.498 23.2615L166.498 26.4615C165.503 26.3692 164.677 26.1538 164.021 25.8154C163.375 25.4667 162.867 24.9641 162.498 24.3077C161.893 25.0359 161.108 25.5897 160.144 25.9692C159.19 26.3385 158.18 26.5231 157.113 26.5231C156.006 26.5231 155.031 26.3077 154.19 25.8769C153.359 25.4359 152.718 24.8308 152.267 24.0615C151.816 23.2821 151.59 22.3897 151.59 21.3846C151.59 20.2154 151.903 19.2154 152.529 18.3846C153.154 17.5538 154.062 16.9231 155.252 16.4923C156.441 16.0513 157.872 15.8308 159.544 15.8308H161.744V15.2154C161.744 13.5436 160.667 12.7077 158.513 12.7077C157.97 12.7077 157.283 12.7846 156.452 12.9385C155.631 13.0923 154.826 13.3026 154.036 13.5692L152.913 10.3385C153.939 9.94872 155.021 9.65128 156.159 9.44616C157.298 9.23077 158.339 9.12308 159.283 9.12308C161.683 9.12308 163.472 9.61026 164.652 10.5846C165.831 11.559 166.421 12.9949 166.421 14.8923V21.2923ZM158.79 23.0462C159.344 23.0462 159.903 22.8872 160.467 22.5692C161.031 22.241 161.457 21.8 161.744 21.2462V18.6H160.544C159.211 18.6 158.221 18.8051 157.575 19.2154C156.929 19.6256 156.606 20.2359 156.606 21.0462C156.606 21.6821 156.795 22.1744 157.175 22.5231C157.565 22.8718 158.103 23.0462 158.79 23.0462ZM179.647 20.8615C179.647 21.4974 179.827 21.9641 180.186 22.2615C180.555 22.5487 181.078 22.6923 181.755 22.6923C182.493 22.6923 183.263 22.5282 184.063 22.2L185.232 25.4462C183.868 26.1641 182.293 26.5231 180.509 26.5231C178.591 26.5231 177.155 25.9744 176.201 24.8769C175.257 23.7692 174.786 22.2308 174.786 20.2615V6.49231H169.97V3.16923H179.647V20.8615ZM201.658 9.12308C202.827 9.12308 203.689 9.50257 204.243 10.2615C204.797 11.0205 205.073 12.2359 205.073 13.9077V26H200.904V14.4615C200.904 13.8769 200.848 13.4718 200.735 13.2462C200.622 13.0103 200.407 12.8923 200.089 12.8923C199.812 12.8923 199.535 12.9744 199.258 13.1385C198.991 13.2923 198.704 13.5641 198.397 13.9538V26H194.981V14.4615C194.981 13.8769 194.925 13.4718 194.812 13.2462C194.699 13.0103 194.484 12.8923 194.166 12.8923C193.889 12.8923 193.612 12.9744 193.335 13.1385C193.068 13.2923 192.781 13.5641 192.473 13.9538V26H188.243V9.66154H191.812L192.135 11.2462C192.668 10.5179 193.197 9.98462 193.72 9.64615C194.243 9.29744 194.853 9.12308 195.55 9.12308C196.186 9.12308 196.715 9.28205 197.135 9.6C197.566 9.91795 197.873 10.4051 198.058 11.0615C199.176 9.76923 200.376 9.12308 201.658 9.12308ZM212.254 19.2462C212.407 20.5282 212.828 21.4718 213.515 22.0769C214.202 22.6821 215.089 22.9846 216.177 22.9846C217.561 22.9846 218.956 22.5333 220.361 21.6308L222.315 24.2769C221.505 24.9744 220.546 25.5231 219.438 25.9231C218.341 26.3231 217.125 26.5231 215.792 26.5231C213.966 26.5231 212.418 26.159 211.146 25.4308C209.874 24.7026 208.915 23.6872 208.269 22.3846C207.623 21.0718 207.3 19.559 207.3 17.8462C207.3 16.2154 207.613 14.7385 208.238 13.4154C208.864 12.0923 209.777 11.0462 210.977 10.2769C212.177 9.50769 213.607 9.12308 215.269 9.12308C216.818 9.12308 218.166 9.45641 219.315 10.1231C220.474 10.7897 221.366 11.7538 221.992 13.0154C222.618 14.2769 222.931 15.7744 222.931 17.5077C222.931 18.1744 222.9 18.7538 222.838 19.2462H212.254ZM215.269 12.3846C214.377 12.3846 213.664 12.7077 213.131 13.3538C212.607 14 212.295 14.9897 212.192 16.3231H218.192C218.161 13.6974 217.187 12.3846 215.269 12.3846ZM233.541 1.10769C234.095 1.10769 234.588 1.23077 235.018 1.47692C235.449 1.71282 235.788 2.04103 236.034 2.46154C236.28 2.8718 236.403 3.33333 236.403 3.84616C236.403 4.35898 236.28 4.82564 236.034 5.24615C235.788 5.66667 235.444 6 235.003 6.24615C234.572 6.48205 234.085 6.6 233.541 6.6C232.988 6.6 232.49 6.48205 232.049 6.24615C231.608 6 231.264 5.66667 231.018 5.24615C230.772 4.82564 230.649 4.35898 230.649 3.84616C230.649 3.33333 230.772 2.8718 231.018 2.46154C231.264 2.04103 231.608 1.71282 232.049 1.47692C232.49 1.23077 232.988 1.10769 233.541 1.10769ZM227.141 9.66154H236.48V22.6769H240.634V26H226.988V22.6769H231.618V12.9846H227.141V9.66154ZM254.245 2.66154L259.106 3.16923V26H254.798L254.552 24.2C254.06 24.8974 253.434 25.4615 252.675 25.8923C251.916 26.3128 251.034 26.5231 250.029 26.5231C248.706 26.5231 247.593 26.1692 246.691 25.4615C245.798 24.7436 245.132 23.7333 244.691 22.4308C244.25 21.1179 244.029 19.5692 244.029 17.7846C244.029 16.1128 244.291 14.6205 244.814 13.3077C245.347 11.9949 246.101 10.9692 247.075 10.2308C248.06 9.49231 249.214 9.12308 250.537 9.12308C252.004 9.12308 253.239 9.62564 254.245 10.6308V2.66154ZM251.845 12.6769C250.963 12.6769 250.275 13.0923 249.783 13.9231C249.291 14.7436 249.045 16.041 249.045 17.8154C249.045 19.7128 249.26 21.0462 249.691 21.8154C250.132 22.5744 250.757 22.9538 251.568 22.9538C252.593 22.9538 253.486 22.3231 254.245 21.0615V14.0154C253.886 13.5744 253.516 13.241 253.137 13.0154C252.757 12.7897 252.327 12.6769 251.845 12.6769ZM277.163 21.2923C277.163 21.8974 277.245 22.3436 277.409 22.6308C277.573 22.9077 277.85 23.1179 278.24 23.2615L277.24 26.4615C276.245 26.3692 275.42 26.1538 274.763 25.8154C274.117 25.4667 273.609 24.9641 273.24 24.3077C272.635 25.0359 271.85 25.5897 270.886 25.9692C269.932 26.3385 268.922 26.5231 267.855 26.5231C266.748 26.5231 265.773 26.3077 264.932 25.8769C264.102 25.4359 263.461 24.8308 263.009 24.0615C262.558 23.2821 262.332 22.3897 262.332 21.3846C262.332 20.2154 262.645 19.2154 263.271 18.3846C263.896 17.5538 264.804 16.9231 265.994 16.4923C267.184 16.0513 268.614 15.8308 270.286 15.8308H272.486V15.2154C272.486 13.5436 271.409 12.7077 269.255 12.7077C268.712 12.7077 268.025 12.7846 267.194 12.9385C266.373 13.0923 265.568 13.3026 264.779 13.5692L263.655 10.3385C264.681 9.94872 265.763 9.65128 266.902 9.44616C268.04 9.23077 269.081 9.12308 270.025 9.12308C272.425 9.12308 274.214 9.61026 275.394 10.5846C276.573 11.559 277.163 12.9949 277.163 14.8923V21.2923ZM269.532 23.0462C270.086 23.0462 270.645 22.8872 271.209 22.5692C271.773 22.241 272.199 21.8 272.486 21.2462V18.6H271.286C269.953 18.6 268.963 18.8051 268.317 19.2154C267.671 19.6256 267.348 20.2359 267.348 21.0462C267.348 21.6821 267.538 22.1744 267.917 22.5231C268.307 22.8718 268.845 23.0462 269.532 23.0462ZM288.928 9.95385C289.441 9.95385 289.907 10.0769 290.328 10.3231C290.748 10.5692 291.082 10.9077 291.328 11.3385C291.574 11.759 291.697 12.2154 291.697 12.7077C291.697 13.2103 291.574 13.6769 291.328 14.1077C291.082 14.5282 290.748 14.8667 290.328 15.1231C289.907 15.3692 289.441 15.4923 288.928 15.4923C288.415 15.4923 287.948 15.3692 287.528 15.1231C287.107 14.8667 286.774 14.5282 286.528 14.1077C286.282 13.6769 286.159 13.2103 286.159 12.7077C286.159 12.2154 286.282 11.759 286.528 11.3385C286.774 10.9077 287.107 10.5692 287.528 10.3231C287.948 10.0769 288.415 9.95385 288.928 9.95385ZM288.928 20.5385C289.451 20.5385 289.923 20.6615 290.343 20.9077C290.764 21.1538 291.092 21.4872 291.328 21.9077C291.574 22.3282 291.697 22.7897 291.697 23.2923C291.697 23.7231 291.63 24.1744 291.497 24.6462C291.364 25.1077 291.143 25.6769 290.836 26.3538L288.482 31.7385H285.836L287.312 25.5692C286.954 25.3231 286.671 25 286.466 24.6C286.261 24.1897 286.159 23.7487 286.159 23.2769C286.159 22.7744 286.277 22.3179 286.512 21.9077C286.759 21.4872 287.092 21.1538 287.512 20.9077C287.943 20.6615 288.415 20.5385 288.928 20.5385Z" fill="white"/>
</svg>
